<svg xmlns="http://www.w3.org/2000/svg" xmlns:xlink="http://www.w3.org/1999/xlink" xmlns:lucid="lucid" width="1100" height="916"><g transform="translate(-200 0)" lucid:page-tab-id="HWEp-vi-RSFO"><path d="M0 0h1760v1360H0z" fill="#fff"/><path d="M501.5 172H588a12 12 0 0 1 12 12v551.67a12 12 0 0 0 12 12h86.5" stroke="#333" fill="none"/><path d="M501.5 172.5h-.5v-1h.5zM699 748.17h-.5v-1h.5z" stroke="#333" stroke-width=".05" fill="#333"/><use xlink:href="#a" transform="matrix(1,0,0,1,501,176) translate(0 14.4)"/><use xlink:href="#b" transform="matrix(1,0,0,1,672.5000000000005,722.0657894005797) translate(0 14.4)"/><path d="M501.42 110.67h106.54a12 12 0 0 1 12 12V140a12 12 0 0 0 12 12H738.5" stroke="#333" fill="none"/><path d="M501.43 111.17h-.48l-.06-1h.53zM739 152.5h-.5v-1h.5z" stroke="#333" stroke-width=".05" fill="#333"/><use xlink:href="#b" transform="matrix(1,0,0,1,500.41878046852776,114.66666666666659) translate(0 14.4)"/><use xlink:href="#b" transform="matrix(1,0,0,1,712.5,126.40000000000002) translate(0 14.4)"/><path d="M1181.5 685.33h27.5a12 12 0 0 0 12-12V164a12 12 0 0 0-12-12H981.5" stroke="#333" fill="none"/><path d="M1181.5 685.83h-.5v-1h.5zM981.5 152.5h-.5v-1h.5z" stroke="#333" stroke-width=".05" fill="#333"/><use xlink:href="#b" transform="matrix(1,0,0,1,1180.5,689.3315788011594) translate(0 14.4)"/><use xlink:href="#b" transform="matrix(1,0,0,1,980.5,156) translate(0 14.4)"/><path d="M300 72c-22.1 0-40 17.9-40 40v120c0 22.1 17.9 40 40 40h160c22.1 0 40-17.9 40-40V112c0-22.1-17.9-40-40-40z" stroke="#333" stroke-width="2" fill="#fff"/><path d="M260 116h240" stroke="#333" stroke-width="2" fill="none"/><use xlink:href="#c" transform="matrix(1,0,0,1,308,72) translate(16.199999999999996 14.799999999999999)"/><use xlink:href="#d" transform="matrix(1,0,0,1,308,72) translate(31.099999999999994 36.4)"/><use xlink:href="#e" transform="matrix(1,0,0,1,284,132) translate(52.099999999999994 22.39999999999999)"/><use xlink:href="#f" transform="matrix(1,0,0,1,284,132) translate(104 22.39999999999999)"/><use xlink:href="#g" transform="matrix(1,0,0,1,284,132) translate(72.05 43.99999999999999)"/><use xlink:href="#h" transform="matrix(1,0,0,1,284,132) translate(59.574999999999996 65.6)"/><use xlink:href="#i" transform="matrix(1,0,0,1,284,132) translate(89.475 65.6)"/><use xlink:href="#j" transform="matrix(1,0,0,1,284,132) translate(35.574999999999996 87.20000000000002)"/><use xlink:href="#k" transform="matrix(1,0,0,1,284,132) translate(92.57499999999999 87.20000000000002)"/><use xlink:href="#l" transform="matrix(1,0,0,1,284,132) translate(57.25 108.80000000000001)"/><path d="M788 32c-26.5 0-48 21.5-48 48v144c0 26.5 21.5 48 48 48h144c26.5 0 48-21.5 48-48V80c0-26.5-21.5-48-48-48z" stroke="#333" stroke-width="2" fill="#fff"/><path d="M740 76h240" stroke="#333" stroke-width="2" fill="none"/><use xlink:href="#m" transform="matrix(1,0,0,1,788,32) translate(36.12499999999999 25.6)"/><use xlink:href="#e" transform="matrix(1,0,0,1,764,92) translate(38.12499999999999 20.800000000000004)"/><use xlink:href="#n" transform="matrix(1,0,0,1,764,92) translate(90.025 20.800000000000004)"/><use xlink:href="#o" transform="matrix(1,0,0,1,764,92) translate(124.975 20.800000000000004)"/><use xlink:href="#p" transform="matrix(1,0,0,1,764,92) translate(54.074999999999996 42.400000000000006)"/><use xlink:href="#n" transform="matrix(1,0,0,1,764,92) translate(74.07499999999999 42.400000000000006)"/><use xlink:href="#o" transform="matrix(1,0,0,1,764,92) translate(109.025 42.400000000000006)"/><use xlink:href="#q" transform="matrix(1,0,0,1,764,92) translate(96 64.00000000000001)"/><use xlink:href="#r" transform="matrix(1,0,0,1,764,92) translate(75.55 85.60000000000002)"/><use xlink:href="#s" transform="matrix(1,0,0,1,764,92) translate(72.05 107.20000000000002)"/><use xlink:href="#t" transform="matrix(1,0,0,1,764,92) translate(55.55 128.8)"/><use xlink:href="#u" transform="matrix(1,0,0,1,764,92) translate(98.5 128.8)"/><use xlink:href="#v" transform="matrix(1,0,0,1,764,92) translate(58.525 150.4)"/><use xlink:href="#w" transform="matrix(1,0,0,1,764,92) translate(95.525 150.4)"/><path d="M828 300c-15.46 0-28 12.54-28 28v84c0 15.46 12.54 28 28 28h204c15.46 0 28-12.54 28-28v-84c0-15.46-12.54-28-28-28z" stroke="#333" stroke-width="2" fill="#fff"/><path d="M800 344h260" stroke="#333" stroke-width="2" fill="none"/><use xlink:href="#x" transform="matrix(1,0,0,1,852,300) translate(29.099999999999994 25.6)"/><use xlink:href="#y" transform="matrix(1,0,0,1,852,300) translate(83.95 25.6)"/><g><use xlink:href="#z" transform="matrix(1,0,0,1,826,360) translate(72.55 14.4)"/><use xlink:href="#f" transform="matrix(1,0,0,1,826,360) translate(99.55 14.4)"/><use xlink:href="#A" transform="matrix(1,0,0,1,826,360) translate(80.05 36)"/><use xlink:href="#j" transform="matrix(1,0,0,1,826,360) translate(43.574999999999996 57.6)"/><use xlink:href="#B" transform="matrix(1,0,0,1,826,360) translate(100.57499999999999 57.6)"/></g><path d="M890 549.78h80l-40-56.9z" stroke="#333" stroke-width="2" fill="#fff"/><path d="M930 441.5v49.13" stroke="#333" fill="none"/><path d="M930.5 441.5h-1v-.5h1zM930.5 491.84l-.5-.7-.5.7v-1.22h1z" stroke="#333" stroke-width=".05" fill="#333"/><path d="M738 637.67c-21 0-38 17-38 38v144c0 20.98 17 38 38 38h114c21 0 38-17.02 38-38v-144c0-21-17-38-38-38z" stroke="#333" stroke-width="2" fill="#fff"/><path d="M700 681.67h190" stroke="#333" stroke-width="2" fill="none"/><g><use xlink:href="#C" transform="matrix(1,0,0,1,738,637.6657894005797) translate(20.525 14.799999999999999)"/><use xlink:href="#D" transform="matrix(1,0,0,1,738,637.6657894005797) translate(26.549999999999997 36.4)"/></g><g><use xlink:href="#E" transform="matrix(1,0,0,1,719,697.6657894005797) translate(46.525 14.4)"/><use xlink:href="#q" transform="matrix(1,0,0,1,719,697.6657894005797) translate(76 36)"/><use xlink:href="#F" transform="matrix(1,0,0,1,719,697.6657894005797) translate(32.625 57.6)"/><use xlink:href="#G" transform="matrix(1,0,0,1,719,697.6657894005797) translate(84.525 57.6)"/><use xlink:href="#r" transform="matrix(1,0,0,1,719,697.6657894005797) translate(55.55 79.20000000000002)"/><use xlink:href="#H" transform="matrix(1,0,0,1,719,697.6657894005797) translate(52.05 100.80000000000001)"/><use xlink:href="#I" transform="matrix(1,0,0,1,719,697.6657894005797) translate(35.55 122.4)"/><use xlink:href="#u" transform="matrix(1,0,0,1,719,697.6657894005797) translate(78.5 122.4)"/><use xlink:href="#v" transform="matrix(1,0,0,1,719,697.6657894005797) translate(38.525 144)"/><use xlink:href="#w" transform="matrix(1,0,0,1,719,697.6657894005797) translate(75.525 144)"/></g><path d="M1016 595.33c-19.88 0-36 16.12-36 36v108c0 19.88 16.12 36 36 36h128c19.88 0 36-16.12 36-36v-108c0-19.88-16.12-36-36-36z" stroke="#333" stroke-width="2" fill="#fff"/><path d="M980 639.33h200" stroke="#333" stroke-width="2" fill="none"/><g><use xlink:href="#J" transform="matrix(1,0,0,1,1020,595.3315788011594) translate(3.5999999999999943 25.6)"/><use xlink:href="#D" transform="matrix(1,0,0,1,1020,595.3315788011594) translate(55.5 25.6)"/></g><g><use xlink:href="#h" transform="matrix(1,0,0,1,1000,655.3315788011594) translate(43.574999999999996 34)"/><use xlink:href="#i" transform="matrix(1,0,0,1,1000,655.3315788011594) translate(73.475 34)"/><use xlink:href="#K" transform="matrix(1,0,0,1,1000,655.3315788011594) translate(13.049999999999997 55.6)"/><use xlink:href="#L" transform="matrix(1,0,0,1,1000,655.3315788011594) translate(109 55.6)"/><use xlink:href="#M" transform="matrix(1,0,0,1,1000,655.3315788011594) translate(41.25 77.2)"/></g><path d="M908.54 520.95H807a12 12 0 0 0-12 12v103.22" stroke="#333" fill="none"/><path d="M908.7 521.45h-.17v-1h.86zM795.5 636.67h-1v-.52h1z" stroke="#333" stroke-width=".05" fill="#333"/><path d="M951.46 520.95h128.18a12 12 0 0 1 12 12v60.88" stroke="#333" fill="none"/><path d="M951.47 521.45h-.16l-.7-1h.87zM1092.14 594.33h-1v-.5h1z" stroke="#333" stroke-width=".05" fill="#333"/><defs><path d="M27 0v-27h64v-190l-56 39v-29l58-41h29v221h61V0H27" id="N"/><use transform="matrix(0.05,0,0,0.05,0,0)" xlink:href="#N" id="a"/><path d="M101-251c68 0 85 55 85 127S166 4 100 4C33 4 14-52 14-124c0-73 17-127 87-127zm-1 229c47 0 54-49 54-102s-4-102-53-102c-51 0-55 48-55 102 0 53 5 102 54 102" id="O"/><path d="M33 0v-38h34V0H33" id="P"/><path d="M80-196l47-18 7 23-49 13 32 44-20 13-27-46-27 45-21-12 33-44-49-13 8-23 47 19-2-53h23" id="Q"/><g id="b"><use transform="matrix(0.05,0,0,0.05,0,0)" xlink:href="#O"/><use transform="matrix(0.05,0,0,0.05,10,0)" xlink:href="#P"/><use transform="matrix(0.05,0,0,0.05,15,0)" xlink:href="#P"/><use transform="matrix(0.05,0,0,0.05,20,0)" xlink:href="#Q"/></g><path fill="#333" d="M67-125c0 53 21 87 73 88 37 1 54-22 65-47l45 17C233-25 199 4 140 4 58 4 20-42 15-125 8-235 124-281 211-232c18 10 29 29 36 50l-46 12c-8-25-30-41-62-41-52 0-71 34-72 86" id="R"/><path fill="#333" d="M110-194c64 0 96 36 96 99 0 64-35 99-97 99-61 0-95-36-95-99 0-62 34-99 96-99zm-1 164c35 0 45-28 45-65 0-40-10-65-43-65-34 0-45 26-45 65 0 36 10 65 43 65" id="S"/><path fill="#333" d="M135-194c87-1 58 113 63 194h-50c-7-57 23-157-34-157-59 0-34 97-39 157H25l-1-190h47c2 12-1 28 3 38 12-26 28-41 61-42" id="T"/><path fill="#333" d="M137-138c1-29-70-34-71-4 15 46 118 7 119 86 1 83-164 76-172 9l43-7c4 19 20 25 44 25 33 8 57-30 24-41C81-84 22-81 20-136c-2-80 154-74 161-7" id="U"/><path fill="#333" d="M115-3C79 11 28 4 28-45v-112H4v-33h27l15-45h31v45h36v33H77v99c-1 23 16 31 38 25v30" id="V"/><path fill="#333" d="M135-150c-39-12-60 13-60 57V0H25l-1-190h47c2 13-1 29 3 40 6-28 27-53 61-41v41" id="W"/><path fill="#333" d="M85 4C-2 5 27-109 22-190h50c7 57-23 150 33 157 60-5 35-97 40-157h50l1 190h-47c-2-12 1-28-3-38-12 25-28 42-61 42" id="X"/><path fill="#333" d="M190-63c-7 42-38 67-86 67-59 0-84-38-90-98-12-110 154-137 174-36l-49 2c-2-19-15-32-35-32-30 0-35 28-38 64-6 74 65 87 74 30" id="Y"/><path fill="#333" d="M25-224v-37h50v37H25zM25 0v-190h50V0H25" id="Z"/><g id="c"><use transform="matrix(0.05,0,0,0.05,0,0)" xlink:href="#R"/><use transform="matrix(0.05,0,0,0.05,12.950000000000001,0)" xlink:href="#S"/><use transform="matrix(0.05,0,0,0.05,23.900000000000002,0)" xlink:href="#T"/><use transform="matrix(0.05,0,0,0.05,34.85,0)" xlink:href="#U"/><use transform="matrix(0.05,0,0,0.05,44.85,0)" xlink:href="#V"/><use transform="matrix(0.05,0,0,0.05,50.800000000000004,0)" xlink:href="#W"/><use transform="matrix(0.05,0,0,0.05,57.800000000000004,0)" xlink:href="#X"/><use transform="matrix(0.05,0,0,0.05,68.75,0)" xlink:href="#Y"/><use transform="matrix(0.05,0,0,0.05,78.75,0)" xlink:href="#V"/><use transform="matrix(0.05,0,0,0.05,84.7,0)" xlink:href="#Z"/><use transform="matrix(0.05,0,0,0.05,89.7,0)" xlink:href="#S"/><use transform="matrix(0.05,0,0,0.05,100.65,0)" xlink:href="#T"/></g><path fill="#333" d="M220-157c-53 9-28 100-34 157h-49v-107c1-27-5-49-29-50C55-147 81-57 75 0H25l-1-190h47c2 12-1 28 3 38 10-53 101-56 108 0 13-22 24-43 59-42 82 1 51 116 57 194h-49v-107c-1-25-5-48-29-50" id="aa"/><path fill="#333" d="M135-194c53 0 70 44 70 98 0 56-19 98-73 100-31 1-45-17-59-34 3 33 2 69 2 105H25l-1-265h48c2 10 0 23 3 31 11-24 29-35 60-35zM114-30c33 0 39-31 40-66 0-38-9-64-40-64-56 0-55 130 0 130" id="ab"/><path fill="#333" d="M133-34C117-15 103 5 69 4 32 3 11-16 11-54c-1-60 55-63 116-61 1-26-3-47-28-47-18 1-26 9-28 27l-52-2c7-38 36-58 82-57s74 22 75 68l1 82c-1 14 12 18 25 15v27c-30 8-71 5-69-32zm-48 3c29 0 43-24 42-57-32 0-66-3-65 30 0 17 8 27 23 27" id="ac"/><path fill="#333" d="M123 10C108 53 80 86 19 72V37c35 8 53-11 59-39L3-190h52l48 148c12-52 28-100 44-148h51" id="ad"/><g id="d"><use transform="matrix(0.05,0,0,0.05,0,0)" xlink:href="#R"/><use transform="matrix(0.05,0,0,0.05,12.950000000000001,0)" xlink:href="#S"/><use transform="matrix(0.05,0,0,0.05,23.900000000000002,0)" xlink:href="#aa"/><use transform="matrix(0.05,0,0,0.05,39.900000000000006,0)" xlink:href="#ab"/><use transform="matrix(0.05,0,0,0.05,50.85000000000001,0)" xlink:href="#ac"/><use transform="matrix(0.05,0,0,0.05,60.85,0)" xlink:href="#T"/><use transform="matrix(0.05,0,0,0.05,71.80000000000001,0)" xlink:href="#ad"/></g><path fill="#333" d="M212-179c-10-28-35-45-73-45-59 0-87 40-87 99 0 60 29 101 89 101 43 0 62-24 78-52l27 14C228-24 195 4 139 4 59 4 22-46 18-125c-6-104 99-153 187-111 19 9 31 26 39 46" id="ae"/><path fill="#333" d="M190 0L58-211 59 0H30v-248h39L202-35l-2-213h31V0h-41" id="af"/><path fill="#333" d="M30-248c87 1 191-15 191 75 0 78-77 80-158 76V0H30v-248zm33 125c57 0 124 11 124-50 0-59-68-47-124-48v98" id="ag"/><path fill="#333" d="M153-248C145-148 188 4 80 4 36 3 13-21 6-62l32-5c4 25 16 42 43 43 27 0 39-20 39-49v-147H72v-28h81" id="ah"/><g id="e"><use transform="matrix(0.05,0,0,0.05,0,0)" xlink:href="#ae"/><use transform="matrix(0.05,0,0,0.05,12.950000000000001,0)" xlink:href="#af"/><use transform="matrix(0.05,0,0,0.05,25.900000000000002,0)" xlink:href="#ag"/><use transform="matrix(0.05,0,0,0.05,37.900000000000006,0)" xlink:href="#ah"/></g><path fill="#333" d="M87 75C49 33 22-17 22-94c0-76 28-126 65-167h31c-38 41-64 92-64 168S80 34 118 75H87" id="ai"/><path fill="#333" d="M194 0L95-120 63-95V0H30v-248h33v124l119-124h40L117-140 236 0h-42" id="aj"/><path fill="#333" d="M33-261c38 41 65 92 65 168S71 34 33 75H2C39 34 66-17 66-93S39-220 2-261h31" id="ak"/><g id="f"><use transform="matrix(0.05,0,0,0.05,0,0)" xlink:href="#ai"/><use transform="matrix(0.05,0,0,0.05,5.95,0)" xlink:href="#ag"/><use transform="matrix(0.05,0,0,0.05,17.95,0)" xlink:href="#aj"/><use transform="matrix(0.05,0,0,0.05,29.950000000000003,0)" xlink:href="#ak"/></g><path fill="#333" d="M141-36C126-15 110 5 73 4 37 3 15-17 15-53c-1-64 63-63 125-63 3-35-9-54-41-54-24 1-41 7-42 31l-33-3c5-37 33-52 76-52 45 0 72 20 72 64v82c-1 20 7 32 28 27v20c-31 9-61-2-59-35zM48-53c0 20 12 33 32 33 41-3 63-29 60-74-43 2-92-5-92 41" id="al"/><path fill="#333" d="M210-169c-67 3-38 105-44 169h-31v-121c0-29-5-50-35-48C34-165 62-65 56 0H25l-1-190h30c1 10-1 24 2 32 10-44 99-50 107 0 11-21 27-35 58-36 85-2 47 119 55 194h-31v-121c0-29-5-49-35-48" id="am"/><path fill="#333" d="M100-194c63 0 86 42 84 106H49c0 40 14 67 53 68 26 1 43-12 49-29l28 8c-11 28-37 45-77 45C44 4 14-33 15-96c1-61 26-98 85-98zm52 81c6-60-76-77-97-28-3 7-6 17-6 28h103" id="an"/><g id="g"><use transform="matrix(0.05,0,0,0.05,0,0)" xlink:href="#af"/><use transform="matrix(0.05,0,0,0.05,12.950000000000001,0)" xlink:href="#al"/><use transform="matrix(0.05,0,0,0.05,22.950000000000003,0)" xlink:href="#am"/><use transform="matrix(0.05,0,0,0.05,37.900000000000006,0)" xlink:href="#an"/></g><path fill="#333" d="M209 0H11v-25l151-195H24v-28h176v25L50-27h159V0" id="ao"/><path fill="#333" d="M24-231v-30h32v30H24zM24 0v-190h32V0H24" id="ap"/><path fill="#333" d="M115-194c55 1 70 41 70 98S169 2 115 4C84 4 66-9 55-30l1 105H24l-1-265h31l2 30c10-21 28-34 59-34zm-8 174c40 0 45-34 45-75s-6-73-45-74c-42 0-51 32-51 76 0 43 10 73 51 73" id="aq"/><g id="h"><use transform="matrix(0.05,0,0,0.05,0,0)" xlink:href="#ao"/><use transform="matrix(0.05,0,0,0.05,10.950000000000001,0)" xlink:href="#ap"/><use transform="matrix(0.05,0,0,0.05,14.9,0)" xlink:href="#aq"/></g><path fill="#333" d="M100-194c62-1 85 37 85 99 1 63-27 99-86 99S16-35 15-95c0-66 28-99 85-99zM99-20c44 1 53-31 53-75 0-43-8-75-51-75s-53 32-53 75 10 74 51 75" id="ar"/><path fill="#333" d="M85-194c31 0 48 13 60 33l-1-100h32l1 261h-30c-2-10 0-23-3-31C134-8 116 4 85 4 32 4 16-35 15-94c0-66 23-100 70-100zm9 24c-40 0-46 34-46 75 0 40 6 74 45 74 42 0 51-32 51-76 0-42-9-74-50-73" id="as"/><g id="i"><use transform="matrix(0.05,0,0,0.05,0,0)" xlink:href="#ae"/><use transform="matrix(0.05,0,0,0.05,12.950000000000001,0)" xlink:href="#ar"/><use transform="matrix(0.05,0,0,0.05,22.950000000000003,0)" xlink:href="#as"/><use transform="matrix(0.05,0,0,0.05,32.95,0)" xlink:href="#an"/></g><path fill="#333" d="M106-169C34-169 62-67 57 0H25v-261h32l-1 103c12-21 28-36 61-36 89 0 53 116 60 194h-32v-121c2-32-8-49-39-48" id="at"/><path fill="#333" d="M117-194c89-4 53 116 60 194h-32v-121c0-31-8-49-39-48C34-167 62-67 57 0H25l-1-190h30c1 10-1 24 2 32 11-22 29-35 61-36" id="au"/><g id="j"><use transform="matrix(0.05,0,0,0.05,0,0)" xlink:href="#ag"/><use transform="matrix(0.05,0,0,0.05,12,0)" xlink:href="#at"/><use transform="matrix(0.05,0,0,0.05,22,0)" xlink:href="#ar"/><use transform="matrix(0.05,0,0,0.05,32,0)" xlink:href="#au"/><use transform="matrix(0.05,0,0,0.05,42,0)" xlink:href="#an"/></g><path fill="#333" d="M84 4C-5 8 30-112 23-190h32v120c0 31 7 50 39 49 72-2 45-101 50-169h31l1 190h-30c-1-10 1-25-2-33-11 22-28 36-60 37" id="av"/><path fill="#333" d="M115-194c53 0 69 39 70 98 0 66-23 100-70 100C84 3 66-7 56-30L54 0H23l1-261h32v101c10-23 28-34 59-34zm-8 174c40 0 45-34 45-75 0-40-5-75-45-74-42 0-51 32-51 76 0 43 10 73 51 73" id="aw"/><path fill="#333" d="M114-163C36-179 61-72 57 0H25l-1-190h30c1 12-1 29 2 39 6-27 23-49 58-41v29" id="ax"/><g id="k"><use transform="matrix(0.05,0,0,0.05,0,0)" xlink:href="#af"/><use transform="matrix(0.05,0,0,0.05,12.950000000000001,0)" xlink:href="#av"/><use transform="matrix(0.05,0,0,0.05,22.950000000000003,0)" xlink:href="#am"/><use transform="matrix(0.05,0,0,0.05,37.900000000000006,0)" xlink:href="#aw"/><use transform="matrix(0.05,0,0,0.05,47.900000000000006,0)" xlink:href="#an"/><use transform="matrix(0.05,0,0,0.05,57.900000000000006,0)" xlink:href="#ax"/></g><path fill="#333" d="M205 0l-28-72H64L36 0H1l101-248h38L239 0h-34zm-38-99l-47-123c-12 45-31 82-46 123h93" id="ay"/><path fill="#333" d="M108 0H70L1-190h34L89-25l56-165h34" id="az"/><path fill="#333" d="M24 0v-261h32V0H24" id="aA"/><path fill="#333" d="M59-47c-2 24 18 29 38 22v24C64 9 27 4 27-40v-127H5v-23h24l9-43h21v43h35v23H59v120" id="aB"/><g id="l"><use transform="matrix(0.05,0,0,0.05,0,0)" xlink:href="#ay"/><use transform="matrix(0.05,0,0,0.05,11.65,0)" xlink:href="#az"/><use transform="matrix(0.05,0,0,0.05,20.65,0)" xlink:href="#al"/><use transform="matrix(0.05,0,0,0.05,30.649999999999995,0)" xlink:href="#aA"/><use transform="matrix(0.05,0,0,0.05,34.6,0)" xlink:href="#ap"/><use transform="matrix(0.05,0,0,0.05,38.550000000000004,0)" xlink:href="#al"/><use transform="matrix(0.05,0,0,0.05,48.550000000000004,0)" xlink:href="#aB"/><use transform="matrix(0.05,0,0,0.05,53.550000000000004,0)" xlink:href="#ap"/><use transform="matrix(0.05,0,0,0.05,57.5,0)" xlink:href="#ar"/><use transform="matrix(0.05,0,0,0.05,67.5,0)" xlink:href="#au"/></g><path fill="#333" d="M182-130c37 4 62 22 62 59C244 23 116-4 24 0v-248c84 5 203-23 205 63 0 31-19 50-47 55zM76-148c40-3 101 13 101-30 0-44-60-28-101-31v61zm0 110c48-3 116 14 116-37 0-48-69-32-116-35v72" id="aC"/><path fill="#333" d="M25 0v-261h50V0H25" id="aD"/><path fill="#333" d="M88-194c31-1 46 15 58 34l-1-101h50l1 261h-48c-2-10 0-23-3-31C134-8 116 4 84 4 32 4 16-41 15-95c0-56 19-97 73-99zm17 164c33 0 40-30 41-66 1-37-9-64-41-64s-38 30-39 65c0 43 13 65 39 65" id="aE"/><path fill="#333" d="M195-6C206 82 75 100 31 46c-4-6-6-13-8-21l49-6c3 16 16 24 34 25 40 0 42-37 40-79-11 22-30 35-61 35-53 0-70-43-70-97 0-56 18-96 73-97 30 0 46 14 59 34l2-30h47zm-90-29c32 0 41-27 41-63 0-35-9-62-40-62-32 0-39 29-40 63 0 36 9 62 39 62" id="aF"/><g id="m"><use transform="matrix(0.05,0,0,0.05,0,0)" xlink:href="#aC"/><use transform="matrix(0.05,0,0,0.05,12.950000000000001,0)" xlink:href="#X"/><use transform="matrix(0.05,0,0,0.05,23.900000000000002,0)" xlink:href="#Z"/><use transform="matrix(0.05,0,0,0.05,28.900000000000002,0)" xlink:href="#aD"/><use transform="matrix(0.05,0,0,0.05,33.900000000000006,0)" xlink:href="#aE"/><use transform="matrix(0.05,0,0,0.05,44.85000000000001,0)" xlink:href="#Z"/><use transform="matrix(0.05,0,0,0.05,49.85000000000001,0)" xlink:href="#T"/><use transform="matrix(0.05,0,0,0.05,60.80000000000001,0)" xlink:href="#aF"/></g><g id="n"><use transform="matrix(0.05,0,0,0.05,0,0)" xlink:href="#ai"/><use transform="matrix(0.05,0,0,0.05,5.95,0)" xlink:href="#ag"/><use transform="matrix(0.05,0,0,0.05,17.95,0)" xlink:href="#aj"/></g><path fill="#333" d="M63-220v92h138v28H63V0H30v-248h175v28H63" id="aG"/><g id="o"><use transform="matrix(0.05,0,0,0.05,0,0)" xlink:href="#aG"/><use transform="matrix(0.05,0,0,0.05,10.950000000000001,0)" xlink:href="#aj"/><use transform="matrix(0.05,0,0,0.05,22.950000000000003,0)" xlink:href="#ak"/></g><path fill="#333" d="M33 0v-248h34V0H33" id="aH"/><g id="p"><use transform="matrix(0.05,0,0,0.05,0,0)" xlink:href="#aH"/><use transform="matrix(0.05,0,0,0.05,5,0)" xlink:href="#as"/></g><path fill="#333" d="M96-169c-40 0-48 33-48 73s9 75 48 75c24 0 41-14 43-38l32 2c-6 37-31 61-74 61-59 0-76-41-82-99-10-93 101-131 147-64 4 7 5 14 7 22l-32 3c-4-21-16-35-41-35" id="aI"/><g id="r"><use transform="matrix(0.05,0,0,0.05,0,0)" xlink:href="#ag"/><use transform="matrix(0.05,0,0,0.05,12,0)" xlink:href="#ax"/><use transform="matrix(0.05,0,0,0.05,17.95,0)" xlink:href="#ap"/><use transform="matrix(0.05,0,0,0.05,21.9,0)" xlink:href="#aI"/><use transform="matrix(0.05,0,0,0.05,30.899999999999995,0)" xlink:href="#an"/></g><g id="s"><use transform="matrix(0.05,0,0,0.05,0,0)" xlink:href="#af"/><use transform="matrix(0.05,0,0,0.05,12.950000000000001,0)" xlink:href="#al"/><use transform="matrix(0.05,0,0,0.05,22.950000000000003,0)" xlink:href="#am"/><use transform="matrix(0.05,0,0,0.05,37.900000000000006,0)" xlink:href="#an"/></g><path fill="#333" d="M185-189c-5-48-123-54-124 2 14 75 158 14 163 119 3 78-121 87-175 55-17-10-28-26-33-46l33-7c5 56 141 63 141-1 0-78-155-14-162-118-5-82 145-84 179-34 5 7 8 16 11 25" id="aJ"/><g id="t"><use transform="matrix(0.05,0,0,0.05,0,0)" xlink:href="#aJ"/><use transform="matrix(0.05,0,0,0.05,12,0)" xlink:href="#aB"/><use transform="matrix(0.05,0,0,0.05,17,0)" xlink:href="#al"/><use transform="matrix(0.05,0,0,0.05,27,0)" xlink:href="#ax"/><use transform="matrix(0.05,0,0,0.05,32.95,0)" xlink:href="#aB"/></g><path fill="#333" d="M30-248c118-7 216 8 213 122C240-48 200 0 122 0H30v-248zM63-27c89 8 146-16 146-99s-60-101-146-95v194" id="aK"/><g id="u"><use transform="matrix(0.05,0,0,0.05,0,0)" xlink:href="#aK"/><use transform="matrix(0.05,0,0,0.05,12.950000000000001,0)" xlink:href="#al"/><use transform="matrix(0.05,0,0,0.05,22.950000000000003,0)" xlink:href="#aB"/><use transform="matrix(0.05,0,0,0.05,27.950000000000003,0)" xlink:href="#an"/></g><path fill="#333" d="M30 0v-248h187v28H63v79h144v27H63v87h162V0H30" id="aL"/><g id="v"><use transform="matrix(0.05,0,0,0.05,0,0)" xlink:href="#aL"/><use transform="matrix(0.05,0,0,0.05,12,0)" xlink:href="#au"/><use transform="matrix(0.05,0,0,0.05,22,0)" xlink:href="#as"/></g><g id="w"><use transform="matrix(0.05,0,0,0.05,0,0)" xlink:href="#aK"/><use transform="matrix(0.05,0,0,0.05,12.950000000000001,0)" xlink:href="#al"/><use transform="matrix(0.05,0,0,0.05,22.950000000000003,0)" xlink:href="#aB"/><use transform="matrix(0.05,0,0,0.05,27.950000000000003,0)" xlink:href="#an"/></g><path fill="#333" d="M185-48c-13 30-37 53-82 52C43 2 14-33 14-96s30-98 90-98c62 0 83 45 84 108H66c0 31 8 55 39 56 18 0 30-7 34-22zm-45-69c5-46-57-63-70-21-2 6-4 13-4 21h74" id="aM"/><g id="x"><use transform="matrix(0.05,0,0,0.05,0,0)" xlink:href="#R"/><use transform="matrix(0.05,0,0,0.05,12.950000000000001,0)" xlink:href="#aD"/><use transform="matrix(0.05,0,0,0.05,17.950000000000003,0)" xlink:href="#Z"/><use transform="matrix(0.05,0,0,0.05,22.950000000000003,0)" xlink:href="#aM"/><use transform="matrix(0.05,0,0,0.05,32.95,0)" xlink:href="#T"/><use transform="matrix(0.05,0,0,0.05,43.900000000000006,0)" xlink:href="#V"/></g><g id="y"><use transform="matrix(0.05,0,0,0.05,0,0)" xlink:href="#aC"/><use transform="matrix(0.05,0,0,0.05,12.950000000000001,0)" xlink:href="#ac"/><use transform="matrix(0.05,0,0,0.05,22.950000000000003,0)" xlink:href="#U"/><use transform="matrix(0.05,0,0,0.05,32.95,0)" xlink:href="#aM"/></g><path fill="#333" d="M80-196l47-18 7 23-49 13 32 44-20 13-27-46-27 45-21-12 33-44-49-13 8-23 47 19-2-53h23" id="aN"/><g id="z"><use transform="matrix(0.05,0,0,0.05,0,0)" xlink:href="#aH"/><use transform="matrix(0.05,0,0,0.05,5,0)" xlink:href="#as"/><use transform="matrix(0.05,0,0,0.05,15,0)" xlink:href="#aN"/></g><g id="A"><use transform="matrix(0.05,0,0,0.05,0,0)" xlink:href="#af"/><use transform="matrix(0.05,0,0,0.05,12.950000000000001,0)" xlink:href="#al"/><use transform="matrix(0.05,0,0,0.05,22.950000000000003,0)" xlink:href="#am"/><use transform="matrix(0.05,0,0,0.05,37.900000000000006,0)" xlink:href="#an"/></g><g id="B"><use transform="matrix(0.05,0,0,0.05,0,0)" xlink:href="#af"/><use transform="matrix(0.05,0,0,0.05,12.950000000000001,0)" xlink:href="#av"/><use transform="matrix(0.05,0,0,0.05,22.950000000000003,0)" xlink:href="#am"/><use transform="matrix(0.05,0,0,0.05,37.900000000000006,0)" xlink:href="#aw"/><use transform="matrix(0.05,0,0,0.05,47.900000000000006,0)" xlink:href="#an"/><use transform="matrix(0.05,0,0,0.05,57.900000000000006,0)" xlink:href="#ax"/></g><path fill="#333" d="M24-248c93 1 206-16 204 79-1 75-69 88-152 82V0H24v-248zm52 121c47 0 100 7 100-41 0-47-54-39-100-39v80" id="aO"/><path fill="#333" d="M114-157C55-157 80-60 75 0H25v-261h50l-1 109c12-26 28-41 61-42 86-1 58 113 63 194h-50c-7-57 23-157-34-157" id="aP"/><g id="C"><use transform="matrix(0.05,0,0,0.05,0,0)" xlink:href="#aO"/><use transform="matrix(0.05,0,0,0.05,12,0)" xlink:href="#aP"/><use transform="matrix(0.05,0,0,0.05,22.950000000000003,0)" xlink:href="#ad"/><use transform="matrix(0.05,0,0,0.05,32.95,0)" xlink:href="#U"/><use transform="matrix(0.05,0,0,0.05,42.95,0)" xlink:href="#Z"/><use transform="matrix(0.05,0,0,0.05,47.95,0)" xlink:href="#Y"/><use transform="matrix(0.05,0,0,0.05,57.95,0)" xlink:href="#ac"/><use transform="matrix(0.05,0,0,0.05,67.95,0)" xlink:href="#aD"/></g><g id="D"><use transform="matrix(0.05,0,0,0.05,0,0)" xlink:href="#aO"/><use transform="matrix(0.05,0,0,0.05,12,0)" xlink:href="#aM"/><use transform="matrix(0.05,0,0,0.05,22,0)" xlink:href="#W"/><use transform="matrix(0.05,0,0,0.05,29,0)" xlink:href="#U"/><use transform="matrix(0.05,0,0,0.05,39,0)" xlink:href="#S"/><use transform="matrix(0.05,0,0,0.05,49.95,0)" xlink:href="#T"/></g><g id="E"><use transform="matrix(0.05,0,0,0.05,0,0)" xlink:href="#aH"/><use transform="matrix(0.05,0,0,0.05,5,0)" xlink:href="#au"/><use transform="matrix(0.05,0,0,0.05,15,0)" xlink:href="#aI"/><use transform="matrix(0.05,0,0,0.05,24,0)" xlink:href="#ar"/><use transform="matrix(0.05,0,0,0.05,34,0)" xlink:href="#am"/><use transform="matrix(0.05,0,0,0.05,48.95,0)" xlink:href="#an"/></g><g id="F"><use transform="matrix(0.05,0,0,0.05,0,0)" xlink:href="#ae"/><use transform="matrix(0.05,0,0,0.05,12.950000000000001,0)" xlink:href="#af"/><use transform="matrix(0.05,0,0,0.05,25.900000000000002,0)" xlink:href="#ag"/><use transform="matrix(0.05,0,0,0.05,37.900000000000006,0)" xlink:href="#ah"/></g><g id="G"><use transform="matrix(0.05,0,0,0.05,0,0)" xlink:href="#ai"/><use transform="matrix(0.05,0,0,0.05,5.95,0)" xlink:href="#aG"/><use transform="matrix(0.05,0,0,0.05,16.900000000000002,0)" xlink:href="#aj"/><use transform="matrix(0.05,0,0,0.05,28.900000000000002,0)" xlink:href="#ak"/></g><g id="H"><use transform="matrix(0.05,0,0,0.05,0,0)" xlink:href="#af"/><use transform="matrix(0.05,0,0,0.05,12.950000000000001,0)" xlink:href="#al"/><use transform="matrix(0.05,0,0,0.05,22.950000000000003,0)" xlink:href="#am"/><use transform="matrix(0.05,0,0,0.05,37.900000000000006,0)" xlink:href="#an"/></g><g id="I"><use transform="matrix(0.05,0,0,0.05,0,0)" xlink:href="#aJ"/><use transform="matrix(0.05,0,0,0.05,12,0)" xlink:href="#aB"/><use transform="matrix(0.05,0,0,0.05,17,0)" xlink:href="#al"/><use transform="matrix(0.05,0,0,0.05,27,0)" xlink:href="#ax"/><use transform="matrix(0.05,0,0,0.05,32.95,0)" xlink:href="#aB"/></g><path fill="#333" d="M24 0v-248h52v208h133V0H24" id="aQ"/><g id="J"><use transform="matrix(0.05,0,0,0.05,0,0)" xlink:href="#aQ"/><use transform="matrix(0.05,0,0,0.05,10.950000000000001,0)" xlink:href="#aM"/><use transform="matrix(0.05,0,0,0.05,20.950000000000003,0)" xlink:href="#aF"/><use transform="matrix(0.05,0,0,0.05,31.900000000000006,0)" xlink:href="#ac"/><use transform="matrix(0.05,0,0,0.05,41.900000000000006,0)" xlink:href="#aD"/></g><path fill="#333" d="M140-251c81 0 123 46 123 126C263-46 219 4 140 4 59 4 17-45 17-125s42-126 123-126zm0 227c63 0 89-41 89-101s-29-99-89-99c-61 0-89 39-89 99S79-25 140-24" id="aR"/><g id="K"><use transform="matrix(0.05,0,0,0.05,0,0)" xlink:href="#aR"/><use transform="matrix(0.05,0,0,0.05,14,0)" xlink:href="#aI"/><use transform="matrix(0.05,0,0,0.05,23,0)" xlink:href="#aI"/><use transform="matrix(0.05,0,0,0.05,32,0)" xlink:href="#av"/><use transform="matrix(0.05,0,0,0.05,42,0)" xlink:href="#aq"/><use transform="matrix(0.05,0,0,0.05,52,0)" xlink:href="#al"/><use transform="matrix(0.05,0,0,0.05,62,0)" xlink:href="#aB"/><use transform="matrix(0.05,0,0,0.05,67,0)" xlink:href="#ap"/><use transform="matrix(0.05,0,0,0.05,70.95,0)" xlink:href="#ar"/><use transform="matrix(0.05,0,0,0.05,80.95,0)" xlink:href="#au"/></g><g id="L"><use transform="matrix(0.05,0,0,0.05,0,0)" xlink:href="#ay"/><use transform="matrix(0.05,0,0,0.05,12,0)" xlink:href="#ax"/><use transform="matrix(0.05,0,0,0.05,17.95,0)" xlink:href="#an"/><use transform="matrix(0.05,0,0,0.05,27.950000000000003,0)" xlink:href="#al"/></g><g id="M"><use transform="matrix(0.05,0,0,0.05,0,0)" xlink:href="#ay"/><use transform="matrix(0.05,0,0,0.05,11.65,0)" xlink:href="#az"/><use transform="matrix(0.05,0,0,0.05,20.65,0)" xlink:href="#al"/><use transform="matrix(0.05,0,0,0.05,30.649999999999995,0)" xlink:href="#aA"/><use transform="matrix(0.05,0,0,0.05,34.6,0)" xlink:href="#ap"/><use transform="matrix(0.05,0,0,0.05,38.550000000000004,0)" xlink:href="#al"/><use transform="matrix(0.05,0,0,0.05,48.550000000000004,0)" xlink:href="#aB"/><use transform="matrix(0.05,0,0,0.05,53.550000000000004,0)" xlink:href="#ap"/><use transform="matrix(0.05,0,0,0.05,57.5,0)" xlink:href="#ar"/><use transform="matrix(0.05,0,0,0.05,67.5,0)" xlink:href="#au"/></g></defs></g></svg>